<?xml version="1.0" encoding="utf-8"?>
<!-- Generator: Adobe Illustrator 23.0.3, SVG Export Plug-In . SVG Version: 6.00 Build 0)  -->
<svg version="1.1" id="alis" xmlns="http://www.w3.org/2000/svg" xmlns:xlink="http://www.w3.org/1999/xlink" x="0px" y="0px"
	 viewBox="0 0 500 500" style="enable-background:new 0 0 500 500;" xml:space="preserve">
<polygon style="fill:#848DE0;" points="135.7,473 250.7,177.6 366.3,473 496,473 309.5,27.9 190.5,27.9 3.7,473 "/>
<polygon style="fill:#5B639B;" points="309.5,27.9 250.7,177.6 393.3,229 "/>
<polygon style="fill:#676FB0;" points="250.7,177.6 298.8,300.1 393.3,229 "/>
<polygon style="fill:#444A74;" points="393.3,229 496,473 298.8,300.1 "/>
<polygon style="fill:#52578B;" points="298.8,300.1 366.3,473 496,473 "/>
<polygon style="fill:#848DE0;" points="250.7,177.6 190.5,27.9 309.5,27.9 "/>
<polygon style="fill:#7780CB;" points="250.7,177.6 190.5,27.9 157,108.4 "/>
<polygon style="fill:#676FB0;" points="250.7,177.6 157,108.4 107,227.2 "/>
<polygon style="fill:#5B639C;" points="250.7,177.6 107,227.2 203.1,299.9 "/>
<polygon style="fill:#52578B;" points="203.1,299.9 3.7,473 107,227.2 "/>
<polygon style="fill:#444A74;" points="203.1,299.9 135.7,473 3.7,473 "/>
</svg>
