<?xml version="1.0" encoding="utf-8"?>
<!-- Generator: Adobe Illustrator 24.1.0, SVG Export Plug-In . SVG Version: 6.00 Build 0)  -->
<svg version="1.1" id="CHAI" xmlns="http://www.w3.org/2000/svg" xmlns:xlink="http://www.w3.org/1999/xlink" x="0px" y="0px"
	 viewBox="0 0 500 500" style="enable-background:new 0 0 500 500;" xml:space="preserve">
<path style="fill:#A52639;" d="M498.06,376.72H371.05v-21.84h22v-22.17h22V110.2H86.03v33.5H21.47v13.56H2.02v131.45h10v12h74v32h21.5v22.5
	h44.5v21.5H20.02v22.5h43.5v21.5h390.03v-21.5h44.5V376.72z M22.03,276.72V168.08h64v108.63H22.03z"/>
<polygon style="fill:#DD3745;" points="437.31,110.98 195.98,110.98 195.98,311.12 217.49,311.12 217.49,333.07 239.98,333.07 239.98,354.89 
	393.65,354.89 393.65,333.07 415.69,333.07 415.69,311.12 437.31,311.12 "/>
<rect x="324.17" y="91.37" style="fill:#FFAA6E;" width="21.81" height="157.77"/>
<rect x="389.98" y="162.64" style="fill:#FFE091;" width="21.81" height="89.88"/>
<polygon style="fill:#431E66;" points="346.13,267.19 346.13,245.14 324.16,245.14 324.16,267.19 301.98,267.19 301.98,332.81 368.17,332.81 
	368.17,267.19 "/>
<rect x="195.53" y="376.72" style="fill:#DD3745;" width="302.52" height="22.25"/>
<rect x="417.46" y="376.72" style="fill:#FFE091;" width="22.25" height="22.25"/>
<rect x="82.24" y="91.19" style="fill:#CCE2E1;" width="360.97" height="21.78"/>
</svg>
