<?xml version="1.0" encoding="utf-8"?>
<!-- Generator: Adobe Illustrator 26.0.3, SVG Export Plug-In . SVG Version: 6.00 Build 0)  -->
<svg version="1.1" id="cvx" xmlns="http://www.w3.org/2000/svg" xmlns:xlink="http://www.w3.org/1999/xlink" x="0px" y="0px"
	 viewBox="0 0 500 500" style="enable-background:new 0 0 500 500;" xml:space="preserve">
<rect x="283.8" y="97.5" style="fill:#1682FE;" width="34.8" height="52.5"/>
<rect x="183.7" style="fill:#1682FE;" width="34.8" height="52.5"/>
<rect x="83.7" y="50" style="fill:#60D8A4;" width="34.8" height="52.5"/>
<rect x="33.7" y="250" style="fill:#F4BB3B;" width="35.2" height="150"/>
<rect x="33.7" y="100" style="fill:#60D8A4;" width="35.2" height="150"/>
<rect x="333.7" y="147.5" style="fill:#1682FE;" width="34.8" height="52.5"/>
<rect x="333.7" y="300" style="fill:#FF5A5A;" width="34.8" height="52.5"/>
<rect x="283.7" y="350" style="fill:#FF5A5A;" width="34.8" height="52.5"/>
<rect x="183.7" y="447.5" style="fill:#FF5A5A;" width="34.8" height="52.5"/>
<rect x="83.7" y="397.5" style="fill:#F4BB3B;" width="34.8" height="52.5"/>
<path style="fill:#3A3A3A;" d="M466.3,200V100h-50V50h-100V0h-100v50h-100v50h-50v300h50v50h100v50h100v-50h100v-50h50V300h-100v50h-50v50
	h-100v-50h-50V150h50v-50h100v50h50v50H466.3z"/>
</svg>
