<?xml version="1.0" encoding="utf-8"?>
<!-- Generator: Adobe Illustrator 25.4.1, SVG Export Plug-In . SVG Version: 6.00 Build 0)  -->
<svg version="1.1" id="filda" xmlns="http://www.w3.org/2000/svg" xmlns:xlink="http://www.w3.org/1999/xlink" x="0px" y="0px"
	 viewBox="0 0 500 500" style="enable-background:new 0 0 500 500;" xml:space="preserve">
<polygon style="fill:#00A3E0;" points="349.3,120.7 251,120.7 172.7,120.7 172.7,169.4 172.7,398.6 251,398.6 251,169.4 349.3,169.4 "/>
<rect x="279.3" y="238.5" transform="matrix(0.7071 -0.7071 0.7071 0.7071 -101.3245 302.3761)" style="fill:#FFFFFF;" width="70" height="70"/>
<path style="fill:#6363FF;" d="M249.5,500c-138.1,0-250-111.9-250-250c0-138.1,111.9-250,250-250c138.1,0,250,111.9,250,250v0
	C499.4,388,387.5,499.9,249.5,500z M249.5,37c-117.6,0-213,95.4-213,213s95.4,213,213,213s213-95.4,213-213
	C462.4,132.4,367.1,37.1,249.5,37z"/>
</svg>
