<?xml version="1.0" encoding="utf-8"?>
<!-- Generator: Adobe Illustrator 24.1.0, SVG Export Plug-In . SVG Version: 6.00 Build 0)  -->
<svg version="1.1" id="POWR" xmlns="http://www.w3.org/2000/svg" xmlns:xlink="http://www.w3.org/1999/xlink" x="0px" y="0px"
	 viewBox="0 0 500 500" style="enable-background:new 0 0 500 500;" xml:space="preserve">
<path style="opacity:0.73;fill:#00CDD7;enable-background:new;" d="M166.7,83.3l83.4-83.4l83.4,83.4l-83.4,83.4L166.7,83.3z"/>
<path style="opacity:0.43;fill:#00CDD7;enable-background:new;" d="M166.7,416.6l83.4-83.4l83.4,83.4L250.1,500L166.7,416.6z"/>
<path style="opacity:0.48;fill:#00CDD7;enable-background:new;" d="M94.4,352.6l113.9-30.5L238.8,436l-113.9,30.5L94.4,352.6z"/>
<path style="opacity:0.18;fill:#00CDD7;enable-background:new;" d="M261,64L375,33.5l30.5,113.9l-113.9,30.5L261,64z"/>
<path style="opacity:0.53;fill:#00CDD7;enable-background:new;" d="M33.4,375l30.5-113.9l113.9,30.5l-30.5,113.9L33.4,375z"/>
<path style="opacity:0.23;fill:#00CDD7;enable-background:new;" d="M322,208.2l30.5-113.9l113.9,30.5l-30.5,113.9L322,208.2z"/>
<path style="opacity:0.58;fill:#00CDD7;enable-background:new;" d="M0,250l83.4-83.4l83.4,83.4l-83.4,83.4L0,250z"/>
<path style="opacity:0.28;fill:#00CDD7;enable-background:new;" d="M333.2,249.8l83.4-83.4l83.4,83.4l-83.4,83.4L333.2,249.8z"/>
<path style="opacity:0.63;fill:#00CDD7;enable-background:new;" d="M33.3,124.9l113.9-30.5l30.5,113.9L63.8,238.8L33.3,124.9z"/>
<path style="opacity:0.33;fill:#00CDD7;enable-background:new;" d="M321.9,291.6l113.9-30.5L466.3,375l-113.9,30.5L321.9,291.6z"/>
<path style="opacity:0.68;fill:#00CDD7;enable-background:new;" d="M94.4,147.4l30.5-113.9L238.8,64l-30.5,113.9L94.4,147.4z"/>
<path style="opacity:0.38;fill:#00CDD7;enable-background:new;" d="M261.1,436l30.5-113.9l113.9,30.5L375,466.5L261.1,436z"/>
</svg>
