<?xml version="1.0" encoding="utf-8"?>
<!-- Generator: Adobe Illustrator 24.1.0, SVG Export Plug-In . SVG Version: 6.00 Build 0)  -->
<svg version="1.1" id="WIB" xmlns="http://www.w3.org/2000/svg" xmlns:xlink="http://www.w3.org/1999/xlink" x="0px" y="0px"
	 viewBox="0 0 500 500" style="enable-background:new 0 0 500 500;" xml:space="preserve">
<defs>
	<filter id="Adobe_OpacityMaskFilter" filterUnits="userSpaceOnUse" x="3.7" y="3" width="493.4" height="493.6">
		<feColorMatrix  type="matrix" values="1 0 0 0 0  0 1 0 0 0  0 0 1 0 0  0 0 0 1 0"/>
	</filter>
</defs>
<mask maskUnits="userSpaceOnUse" x="3.7" y="3" width="493.4" height="493.6" id="mask-4_1_">
	<g style="filter:url(#Adobe_OpacityMaskFilter);">
		<polygon id="path-3_1_" style="fill-rule:evenodd;clip-rule:evenodd;fill:#FFFFFF;" points="497.1,496.6 3.7,496.6 3.7,3 497.1,3 		"/>
	</g>
</mask>
<path id="Fill-14" style="mask:url(#mask-4_1_);fill-rule:evenodd;clip-rule:evenodd;" d="M243.4,25.6c1.9-1.9,4.4-2.9,7-2.9c2.6,0,5.1,1,7,2.9l217.1,217.8c0.6,0.6,0.9,1.3,1.3,2
	l-98.3,49.1c-3.8,1.9-8.4,1.2-11.4-1.8l-94.6-94.4c-5.6-5.6-13.1-8.7-21-8.7c-7.9,0-15.4,3.1-21,8.7l-94.6,94.4
	c-3,3-7.6,3.8-11.4,1.8L25,245.4c0.4-0.7,0.7-1.4,1.3-2L243.4,25.6z M488.4,229.5L271.4,11.7c-5.6-5.6-13.1-8.7-21-8.7
	c-7.9,0-15.4,3.1-21,8.7l-217,217.7c-11.6,11.5-11.6,30.3,0,41.9l217,216.6c5.6,5.6,13.1,8.7,21,8.7c7.9,0,15.4-3.1,21-8.7
	l217-216.6C500,259.8,500,241,488.4,229.5z"/>
</svg>
